<?xml version="1.0" encoding="UTF-8"?>
<svg
  width="56"
  height="39"
  viewBox="0 0 56 39"
  fill="none"
  xmlns="http://www.w3.org/2000/svg"
>
  <path
    d="M3.03 0H52.16C53.83 0 55.19 1.36 55.19 3.03V35.36C55.19 37.03 53.83 38.39 52.16 38.39H3.03C1.36 38.4 0 37.04 0 35.37V3.03C0 1.36 1.36 0 3.03 0Z"
    fill="#B22234"
  />
  <path
    d="M0.02 2.72998H55.19C55.2 2.82998 55.21 2.92998 55.21 3.03998V5.97998H0V3.02998C0 2.92998 0.01 2.82998 0.02 2.72998ZM55.2 8.66998V11.91H0V8.66998H55.2ZM55.2 14.61V17.85H0V14.61H55.2ZM55.2 20.55V23.79H0V20.55H55.2ZM55.2 26.49V29.73H0V26.49H55.2ZM55.2 32.43V35.36C55.2 35.46 55.19 35.57 55.18 35.67H0.02C0.01 35.58 0 35.47 0 35.37V32.44H55.2V32.43Z"
    fill="white"
  />
  <path
    d="M20.8 0V20.68H0V3.03C0 1.36 1.36 0 3.03 0H20.8Z"
    fill="#3C3B6E"
  />
  <path
    d="M1.2301 2.85999L1.9201 5.00999L0.100098 3.67999H2.3601L0.530098 5.00999L1.2301 2.85999Z"
    fill="white"
  />
  <path
    d="M1.2301 7.02002L1.9201 9.17002L0.100098 7.84002H2.3601L0.530098 9.17002L1.2301 7.02002Z"
    fill="white"
  />
  <path
    d="M1.2301 11.18L1.9201 13.33L0.100098 12H2.3601L0.530098 13.33L1.2301 11.18Z"
    fill="white"
  />
  <path
    d="M1.2301 15.34L1.9201 17.49L0.100098 16.16H2.3601L0.530098 17.49L1.2301 15.34Z"
    fill="white"
  />
  <path
    d="M3.67004 0.780029L4.37004 2.93003L2.54004 1.60003H4.81004L2.97004 2.93003L3.67004 0.780029Z"
    fill="white"
  />
  <path
    d="M3.67004 4.94L4.37004 7.09L2.54004 5.76H4.81004L2.97004 7.09L3.67004 4.94Z"
    fill="white"
  />
  <path
    d="M3.67004 9.09998L4.37004 11.25L2.54004 9.91998H4.81004L2.97004 11.25L3.67004 9.09998Z"
    fill="white"
  />
  <path
    d="M3.67004 13.26L4.37004 15.41L2.54004 14.08H4.81004L2.97004 15.41L3.67004 13.26Z"
    fill="white"
  />
  <path
    d="M3.67004 17.42L4.37004 19.57L2.54004 18.24H4.81004L2.97004 19.57L3.67004 17.42Z"
    fill="white"
  />
  <path
    d="M6.11999 2.85999L6.81999 5.00999L4.98999 3.67999H7.24999L5.41999 5.00999L6.11999 2.85999Z"
    fill="white"
  />
  <path
    d="M6.11999 7.02002L6.81999 9.17002L4.98999 7.84002H7.24999L5.41999 9.17002L6.11999 7.02002Z"
    fill="white"
  />
  <path
    d="M6.11999 11.18L6.81999 13.33L4.98999 12H7.24999L5.41999 13.33L6.11999 11.18Z"
    fill="white"
  />
  <path
    d="M6.11999 15.34L6.81999 17.49L4.98999 16.16H7.24999L5.41999 17.49L6.11999 15.34Z"
    fill="white"
  />
  <path
    d="M8.56994 0.780029L9.25994 2.93003L7.43994 1.60003H9.69994L7.86994 2.93003L8.56994 0.780029Z"
    fill="white"
  />
  <path
    d="M8.56994 4.94L9.25994 7.09L7.43994 5.76H9.69994L7.86994 7.09L8.56994 4.94Z"
    fill="white"
  />
  <path
    d="M8.56994 9.09998L9.25994 11.25L7.43994 9.91998H9.69994L7.86994 11.25L8.56994 9.09998Z"
    fill="white"
  />
  <path
    d="M8.56994 13.26L9.25994 15.41L7.43994 14.08H9.69994L7.86994 15.41L8.56994 13.26Z"
    fill="white"
  />
  <path
    d="M8.56994 17.42L9.25994 19.57L7.43994 18.24H9.69994L7.86994 19.57L8.56994 17.42Z"
    fill="white"
  />
  <path
    d="M11.0099 2.85999L11.7099 5.00999L9.87988 3.67999H12.1399L10.3099 5.00999L11.0099 2.85999Z"
    fill="white"
  />
  <path
    d="M11.0099 7.02002L11.7099 9.17002L9.87988 7.84002H12.1399L10.3099 9.17002L11.0099 7.02002Z"
    fill="white"
  />
  <path
    d="M11.0099 11.18L11.7099 13.33L9.87988 12H12.1399L10.3099 13.33L11.0099 11.18Z"
    fill="white"
  />
  <path
    d="M11.0099 15.34L11.7099 17.49L9.87988 16.16H12.1399L10.3099 17.49L11.0099 15.34Z"
    fill="white"
  />
  <path
    d="M13.4601 0.780029L14.1601 2.93003L12.3301 1.60003H14.5901L12.7601 2.93003L13.4601 0.780029Z"
    fill="white"
  />
  <path
    d="M13.4601 4.94L14.1601 7.09L12.3301 5.76H14.5901L12.7601 7.09L13.4601 4.94Z"
    fill="white"
  />
  <path
    d="M13.4601 9.09998L14.1601 11.25L12.3301 9.91998H14.5901L12.7601 11.25L13.4601 9.09998Z"
    fill="white"
  />
  <path
    d="M13.4601 13.26L14.1601 15.41L12.3301 14.08H14.5901L12.7601 15.41L13.4601 13.26Z"
    fill="white"
  />
  <path
    d="M13.4601 17.42L14.1601 19.57L12.3301 18.24H14.5901L12.7601 19.57L13.4601 17.42Z"
    fill="white"
  />
  <path
    d="M15.9 2.85999L16.6 5.00999L14.77 3.67999H17.03L15.21 5.00999L15.9 2.85999Z"
    fill="white"
  />
  <path
    d="M15.9 7.02002L16.6 9.17002L14.77 7.84002H17.03L15.21 9.17002L15.9 7.02002Z"
    fill="white"
  />
  <path
    d="M15.9 11.18L16.6 13.33L14.77 12H17.03L15.21 13.33L15.9 11.18Z"
    fill="white"
  />
  <path
    d="M15.9 15.34L16.6 17.49L14.77 16.16H17.03L15.21 17.49L15.9 15.34Z"
    fill="white"
  />
  <path
    d="M18.35 0.780029L19.05 2.93003L17.22 1.60003H19.48L17.65 2.93003L18.35 0.780029Z"
    fill="white"
  />
  <path
    d="M18.35 4.94L19.05 7.09L17.22 5.76H19.48L17.65 7.09L18.35 4.94Z"
    fill="white"
  />
  <path
    d="M18.35 9.09998L19.05 11.25L17.22 9.91998H19.48L17.65 11.25L18.35 9.09998Z"
    fill="white"
  />
  <path
    d="M18.35 13.26L19.05 15.41L17.22 14.08H19.48L17.65 15.41L18.35 13.26Z"
    fill="white"
  />
  <path
    d="M18.35 17.42L19.05 19.57L17.22 18.24H19.48L17.65 19.57L18.35 17.42Z"
    fill="white"
  />
</svg>