<svg width="544" height="1076" viewBox="0 0 544 1076" fill="none" xmlns="http://www.w3.org/2000/svg">
<path d="M0 12C0 5.37255 5.37258 0 12 0H544V1076H12C5.37259 1076 0 1070.63 0 1064V12Z" fill="url(#paint0_linear_3001_244)"/>
<mask id="mask0_3001_244" style="mask-type:alpha" maskUnits="userSpaceOnUse" x="0" y="0" width="544" height="1076">
<path d="M0 12C0 5.37255 5.37258 0 12 0H544V1076H12C5.37259 1076 0 1070.63 0 1064V12Z" fill="url(#paint1_linear_3001_244)"/>
</mask>
<g mask="url(#mask0_3001_244)">
<rect x="-95.031" y="744.019" width="92.5653" height="478.695" rx="46.2826" transform="rotate(-23.4707 -95.031 744.019)" fill="url(#paint2_linear_3001_244)" fill-opacity="0.54"/>
<rect x="200.238" y="753.343" width="92.5653" height="483.303" rx="46.2826" transform="rotate(-23.4707 200.238 753.343)" fill="url(#paint3_linear_3001_244)" fill-opacity="0.54"/>
<rect x="243.613" y="713.684" width="92.5653" height="478.695" rx="46.2826" transform="rotate(29.2486 243.613 713.684)" fill="url(#paint4_linear_3001_244)" fill-opacity="0.54"/>
<rect x="558.267" y="713.684" width="92.5653" height="478.695" rx="46.2826" transform="rotate(29.2486 558.267 713.684)" fill="url(#paint5_linear_3001_244)" fill-opacity="0.54"/>
</g>
<circle cx="512" r="32" fill="url(#paint6_linear_3001_244)" fill-opacity="0.54"/>
<circle cx="47" cy="203.535" r="10" fill="url(#paint7_linear_3001_244)" fill-opacity="0.54"/>
<circle cx="458" cy="528.209" r="10" fill="url(#paint8_linear_3001_244)" fill-opacity="0.54"/>
<defs>
<linearGradient id="paint0_linear_3001_244" x1="0" y1="0" x2="898.1" y2="1613.56" gradientUnits="userSpaceOnUse">
<stop stop-color="#1D50AB"/>
<stop offset="1" stop-color="#0A285E"/>
</linearGradient>
<linearGradient id="paint1_linear_3001_244" x1="0" y1="0" x2="898.1" y2="1613.56" gradientUnits="userSpaceOnUse">
<stop stop-color="#1D50AB"/>
<stop offset="1" stop-color="#0A285E"/>
</linearGradient>
<linearGradient id="paint2_linear_3001_244" x1="-12.8821" y1="846.948" x2="-184.526" y2="910.557" gradientUnits="userSpaceOnUse">
<stop stop-color="#1D50AB"/>
<stop offset="1" stop-color="#0A285E"/>
</linearGradient>
<linearGradient id="paint3_linear_3001_244" x1="282.387" y1="857.262" x2="110.349" y2="920.409" gradientUnits="userSpaceOnUse">
<stop stop-color="#1D50AB"/>
<stop offset="1" stop-color="#0A285E"/>
</linearGradient>
<linearGradient id="paint4_linear_3001_244" x1="325.762" y1="816.613" x2="154.117" y2="880.222" gradientUnits="userSpaceOnUse">
<stop stop-color="#1D50AB"/>
<stop offset="1" stop-color="#0A285E"/>
</linearGradient>
<linearGradient id="paint5_linear_3001_244" x1="640.416" y1="816.613" x2="468.772" y2="880.222" gradientUnits="userSpaceOnUse">
<stop stop-color="#1D50AB"/>
<stop offset="1" stop-color="#0A285E"/>
</linearGradient>
<linearGradient id="paint6_linear_3001_244" x1="536.798" y1="-18.2388" x2="507.914" y2="37.1178" gradientUnits="userSpaceOnUse">
<stop stop-color="#1D50AB"/>
<stop offset="1" stop-color="#0A285E"/>
</linearGradient>
<linearGradient id="paint7_linear_3001_244" x1="54.7494" y1="197.836" x2="45.723" y2="215.134" gradientUnits="userSpaceOnUse">
<stop stop-color="#1D50AB"/>
<stop offset="1" stop-color="#0A285E"/>
</linearGradient>
<linearGradient id="paint8_linear_3001_244" x1="465.749" y1="522.509" x2="456.723" y2="539.808" gradientUnits="userSpaceOnUse">
<stop stop-color="#1D50AB"/>
<stop offset="1" stop-color="#0A285E"/>
</linearGradient>
</defs>
</svg>
