<svg width="128" height="38" viewBox="0 0 128 38" fill="none" xmlns="http://www.w3.org/2000/svg">
<path d="M15.0434 6.44101V1.60997C15.0434 1.19651 14.8798 0.799986 14.5885 0.507628C14.2972 0.215269 13.9021 0.0510254 13.4902 0.0510254H8.67686C8.26492 0.0510254 7.86984 0.215269 7.57856 0.507628C7.28727 0.799986 7.12363 1.19651 7.12363 1.60997V4.89609C7.12376 5.19873 7.06435 5.49843 6.94882 5.77798C6.83328 6.05753 6.6639 6.31143 6.45038 6.52513C6.23746 6.73944 5.98449 6.90945 5.70596 7.0254C5.42744 7.14136 5.12884 7.20099 4.82731 7.20086H1.55324C1.14129 7.20086 0.746223 7.3651 0.454936 7.65746C0.163649 7.94982 7.62939e-06 8.34634 7.62939e-06 8.7598V13.5908C7.62939e-06 14.0043 0.163649 14.4008 0.454936 14.6932C0.746223 14.9855 1.14129 15.1498 1.55324 15.1498H6.36657C6.77851 15.1498 7.17358 14.9855 7.46486 14.6932C7.75615 14.4008 7.9198 14.0043 7.9198 13.5908V10.3047C7.91988 9.69341 8.16149 9.10707 8.59165 8.67429C9.02285 8.24254 9.60704 8.00004 10.2161 7.99996H13.4902C13.9021 7.99996 14.2972 7.83571 14.5885 7.54335C14.8798 7.25099 15.0434 6.85447 15.0434 6.44101Z" fill="white"/>
<path d="M34.1152 12.1792C34.097 18.8888 28.5909 24.2834 21.9058 24.2834H9.54007C9.11553 24.2834 8.70838 24.4527 8.40819 24.754C8.108 25.0553 7.93935 25.4639 7.93935 25.89V31.6576H0.0656548V25.1638C0.0657755 24.8001 0.139076 24.4401 0.281166 24.1055C0.423257 23.7709 0.631208 23.4685 0.892551 23.2166L7.20603 17.1322C7.70739 16.65 8.37495 16.3807 9.06935 16.3807H21.9533C24.2692 16.3807 26.201 14.5344 26.2359 12.2114C26.2438 11.6501 26.1406 11.0928 25.9323 10.5718C25.7239 10.0509 25.4146 9.57663 25.0221 9.17663C24.6297 8.77663 24.162 8.45884 23.6463 8.2417C23.1305 8.02456 22.5769 7.91239 22.0176 7.9117H18.7505C18.5891 7.9117 18.4292 7.87979 18.2801 7.81779C18.131 7.75579 17.9955 7.66492 17.8813 7.55036C17.7672 7.4358 17.6767 7.2998 17.6149 7.15012C17.5531 7.00044 17.5213 6.84001 17.5213 6.678V1.24273C17.5213 0.915532 17.6508 0.601737 17.8813 0.370374C18.1119 0.139011 18.4245 0.0090332 18.7505 0.0090332H22.0162C23.607 0.00995225 25.1821 0.32556 26.6513 0.937819C28.1206 1.55008 29.4551 2.44698 30.5788 3.57725C31.7025 4.70752 32.5931 6.04898 33.1999 7.52496C33.8067 9.00094 34.1177 10.5825 34.1152 12.1792Z" fill="white"/>
<path d="M59.3649 18.5145H51.4912V29.4495H46.9656V0.295044H59.3663C65.5667 0.295044 69.4833 3.48864 69.4833 9.4258C69.4833 15.363 65.5653 18.5145 59.3649 18.5145ZM58.7531 3.73958H51.4898V15.0812H58.7531C62.7912 15.0812 64.9535 13.2391 64.9535 9.43141C64.9535 5.62378 62.7912 3.73958 58.7531 3.73958Z" fill="white"/>
<path d="M70.711 23.4689C70.711 20.3159 72.6274 17.8191 77.85 17.3691L81.9287 17.041C84.4163 16.7957 85.151 16.2223 85.151 14.8709C85.151 12.4553 83.764 11.0226 80.7051 11.0226C77.85 11.0226 76.2996 12.2507 76.0957 14.8709H71.8536C71.8536 10.6132 74.4642 7.91028 80.6646 7.91028C86.8244 7.91028 89.4755 10.6132 89.4755 14.8709V24.0423C89.4755 26.9078 89.7199 28.7513 90.1278 29.4467H86.2531C85.5994 28.628 85.355 27.7644 85.355 25.8017C84.2124 28.5032 81.8882 29.8547 78.2579 29.8547C73.3566 29.8561 70.711 27.3999 70.711 23.4689ZM85.151 20.48V18.6785C84.7027 19.2519 83.5601 19.5799 81.9287 19.7019L79.2315 19.9486C76.2116 20.194 75.0285 21.4627 75.0285 23.1829C75.0285 25.3531 76.3345 26.8671 79.4354 26.8671C83.1425 26.8714 85.1455 23.961 85.1455 20.48H85.151Z" fill="white"/>
<path d="M92.8557 34.3605H94.7358C97.5503 34.3605 99.1818 32.559 99.1818 30.6342C99.1798 30.1997 99.0969 29.7694 98.9373 29.3654L90.9421 8.3197H95.4286L101.507 25.9672L107.625 8.3197H112.154L104.076 29.3654C101.669 35.5886 99.2628 37.4714 94.6939 37.4714H92.8585L92.8557 34.3605Z" fill="white"/>
<path d="M114.598 29.4467V0.295044H118.928V29.4467H114.598Z" fill="white"/>
<path d="M122.593 2.33763C122.593 1.02682 123.491 0.00341797 125.163 0.00341797C126.795 0.00341797 127.734 1.02682 127.734 2.33763C127.734 3.64843 126.795 4.62978 125.163 4.62978C123.491 4.63539 122.593 3.65264 122.593 2.33763ZM123.001 29.4411V8.31966H127.331V29.4467L123.001 29.4411Z" fill="white"/>
</svg>
