<svg width="916" height="268" viewBox="0 0 916 268" fill="none" xmlns="http://www.w3.org/2000/svg">
<path d="M108.46 46.2699V11.8099C108.46 8.86073 107.288 6.0323 105.203 3.9469C103.117 1.86149 100.289 0.689941 97.3398 0.689941H62.8798C59.9306 0.689941 57.1021 1.86149 55.0167 3.9469C52.9313 6.0323 51.7598 8.86073 51.7598 11.8099V35.2499C51.7607 37.4087 51.3354 39.5464 50.5082 41.5405C49.6811 43.5345 48.4684 45.3456 46.9398 46.8699C45.4155 48.3986 43.6043 49.6113 41.6103 50.4384C39.6163 51.2655 37.4785 51.6909 35.3198 51.6899H11.8798C8.93055 51.6899 6.10213 52.8615 4.01672 54.9469C1.93132 57.0323 0.759766 59.8607 0.759766 62.8099V97.2699C0.759766 100.219 1.93132 103.048 4.01672 105.133C6.10213 107.218 8.93055 108.39 11.8798 108.39H46.3398C49.289 108.39 52.1174 107.218 54.2028 105.133C56.2882 103.048 57.4598 100.219 57.4598 97.2699V73.8299C57.4603 69.4694 59.1901 65.287 62.2698 62.2C65.3568 59.1203 69.5392 57.3905 73.8998 57.39H97.3398C100.289 57.39 103.117 56.2184 105.203 54.133C107.288 52.0476 108.46 49.2191 108.46 46.2699Z" fill="#1D50AA"/>
<path d="M245 87.2001C244.87 135.06 205.45 173.54 157.59 173.54H69.06C66.0206 173.54 63.1057 174.747 60.9565 176.897C58.8073 179.046 57.5999 181.961 57.5999 185V226.14H1.22998V179.82C1.23084 177.226 1.75562 174.658 2.77289 172.271C3.79015 169.884 5.27893 167.728 7.14996 165.93L52.3499 122.53C55.9393 119.09 60.7186 117.17 65.69 117.17H157.93C174.51 117.17 188.34 104 188.59 87.4301C188.647 83.4263 187.908 79.451 186.416 75.735C184.925 72.0189 182.71 68.6361 179.9 65.7829C177.091 62.9297 173.743 60.6629 170.05 59.114C166.358 57.5651 162.394 56.765 158.39 56.7601H135C133.844 56.7601 132.7 56.5325 131.632 56.0903C130.565 55.648 129.595 54.9998 128.777 54.1826C127.96 53.3655 127.312 52.3954 126.87 51.3277C126.428 50.2601 126.2 49.1157 126.2 47.9601V9.19012C126.2 6.85622 127.127 4.61791 128.777 2.96759C130.428 1.31727 132.666 0.390137 135 0.390137H158.38C169.769 0.396692 181.046 2.64793 191.564 7.0152C202.083 11.3825 211.638 17.7801 219.682 25.8423C227.727 33.9046 234.103 43.4733 238.448 54.0015C242.792 64.5297 245.018 75.8109 245 87.2001Z" fill="#1D50AA"/>
<path d="M425.77 132.39H369.4V210.39H337V2.43018H425.78C470.17 2.43018 498.21 25.2102 498.21 67.5602C498.21 109.91 470.16 132.39 425.77 132.39ZM421.39 27.0002H369.39V107.9H421.39C450.3 107.9 465.78 94.7602 465.78 67.6002C465.78 40.4402 450.3 27.0002 421.39 27.0002Z" fill="#1D50AA"/>
<path d="M507 167.73C507 145.24 520.72 127.43 558.11 124.22L587.31 121.88C605.12 120.13 610.38 116.04 610.38 106.4C610.38 89.17 600.45 78.95 578.55 78.95C558.11 78.95 547.01 87.71 545.55 106.4H515.18C515.18 76.03 533.87 56.75 578.26 56.75C622.36 56.75 641.34 76.03 641.34 106.4V171.82C641.34 192.26 643.09 205.41 646.01 210.37H618.27C613.59 204.53 611.84 198.37 611.84 184.37C603.66 203.64 587.02 213.28 561.03 213.28C525.94 213.29 507 195.77 507 167.73ZM610.38 146.41V133.56C607.17 137.65 598.99 139.99 587.31 140.86L568 142.62C546.38 144.37 537.91 153.42 537.91 165.69C537.91 181.17 547.26 191.97 569.46 191.97C596 192 610.34 171.24 610.34 146.41H610.38Z" fill="#1D50AA"/>
<path d="M665.54 245.42H679C699.15 245.42 710.83 232.57 710.83 218.84C710.816 215.741 710.222 212.671 709.08 209.79L651.84 59.6699H683.96L727.48 185.55L771.28 59.6699H803.7L745.87 209.79C728.64 254.18 711.41 267.61 678.7 267.61H665.56L665.54 245.42Z" fill="#1D50AA"/>
<path d="M821.2 210.37V2.43018H852.2V210.37H821.2Z" fill="#1D50AA"/>
<path d="M878.44 17.0001C878.44 7.65009 884.87 0.350098 896.84 0.350098C908.52 0.350098 915.24 7.65009 915.24 17.0001C915.24 26.3501 908.52 33.3501 896.84 33.3501C884.87 33.3901 878.44 26.3801 878.44 17.0001ZM881.36 210.33V59.6701H912.36V210.37L881.36 210.33Z" fill="#1D50AA"/>
</svg>
