<svg width="245" height="227" viewBox="0 0 245 227" fill="none" xmlns="http://www.w3.org/2000/svg">
<path d="M108.304 46.2699V11.8099C108.304 8.86073 107.132 6.0323 105.047 3.9469C102.961 1.86149 100.133 0.689941 97.1835 0.689941H62.7235C59.7743 0.689941 56.9459 1.86149 54.8605 3.9469C52.7751 6.0323 51.6035 8.86073 51.6035 11.8099V35.2499C51.6044 37.4087 51.1791 39.5464 50.352 41.5405C49.5249 43.5345 48.3122 45.3456 46.7835 46.8699C45.2592 48.3986 43.4481 49.6113 41.454 50.4384C39.46 51.2655 37.3223 51.6909 35.1635 51.6899H11.7235C8.7743 51.6899 5.94588 52.8615 3.86047 54.9469C1.77507 57.0323 0.603516 59.8607 0.603516 62.8099V97.2699C0.603516 100.219 1.77507 103.048 3.86047 105.133C5.94588 107.218 8.7743 108.39 11.7235 108.39H46.1835C49.1327 108.39 51.9611 107.218 54.0465 105.133C56.1319 103.048 57.3035 100.219 57.3035 97.2699V73.8299C57.3041 69.4694 59.0338 65.287 62.1135 62.2C65.2006 59.1203 69.383 57.3905 73.7435 57.39H97.1835C100.133 57.39 102.961 56.2184 105.047 54.133C107.132 52.0476 108.304 49.2191 108.304 46.2699Z" fill="white"/>
<path d="M244.844 87.2001C244.714 135.06 205.294 173.54 157.434 173.54H68.9037C65.8643 173.54 62.9494 174.747 60.8003 176.897C58.6511 179.046 57.4437 181.961 57.4437 185V226.14H1.07373V179.82C1.07459 177.226 1.59937 174.658 2.61664 172.271C3.6339 169.884 5.12268 167.728 6.99371 165.93L52.1937 122.53C55.783 119.09 60.5623 117.17 65.5337 117.17H157.774C174.354 117.17 188.184 104 188.434 87.4301C188.491 83.4263 187.752 79.451 186.26 75.735C184.768 72.0189 182.554 68.6361 179.744 65.7829C176.935 62.9297 173.587 60.6629 169.894 59.114C166.201 57.5651 162.238 56.765 158.234 56.7601H134.844C133.688 56.7601 132.544 56.5325 131.476 56.0903C130.408 55.648 129.438 54.9998 128.621 54.1826C127.804 53.3655 127.156 52.3954 126.714 51.3277C126.271 50.2601 126.044 49.1157 126.044 47.9601V9.19012C126.044 6.85622 126.971 4.61791 128.621 2.96759C130.271 1.31727 132.51 0.390137 134.844 0.390137H158.224C169.613 0.396692 180.889 2.64793 191.408 7.0152C201.927 11.3825 211.481 17.7801 219.526 25.8423C227.57 33.9046 233.947 43.4733 238.291 54.0015C242.636 64.5297 244.862 75.8109 244.844 87.2001Z" fill="white"/>
</svg>