<svg xmlns:dc="http://purl.org/dc/elements/1.1/" xmlns:cc="http://creativecommons.org/ns#" xmlns:rdf="http://www.w3.org/1999/02/22-rdf-syntax-ns#" xmlns:svg="http://www.w3.org/2000/svg" xmlns="http://www.w3.org/2000/svg" xmlns:sodipodi="http://sodipodi.sourceforge.net/DTD/sodipodi-0.dtd" xmlns:inkscape="http://www.inkscape.org/namespaces/inkscape" version="1.1" x="0px" y="0px" viewBox="0 0 100 125"><g transform="translate(0,-952.36218)"><path style="text-indent:0;text-transform:none;direction:ltr;block-progression:tb;baseline-shift:baseline;color:#000000;enable-background:accumulate;" d="m 50.302087,957.39841 c -13.35639,3.8095 -26.74198,7.5869 -40.1121,11.3735 -0.19277,0.051 -0.36939,0.1616 -0.49984,0.3124 -5.74112,6.9076 -5.75508,15.4156 -2.49919,20.9976 3.57706,6.1326 8.92226,11.23639 15.49501,14.52959 5.71702,8.8082 12.54358,19.5241 18.65025,27.9967 3.0714,4.2613 5.93615,7.942 8.43479,10.5612 1.24933,1.3098 2.39363,2.3696 3.46764,3.0934 1.13225,0.6326 2.10045,1.03 3.18647,1.0309 2.20021,0.2208 5.4452,-0.1008 9.13503,-0.8338 4.73807,-0.8104 12.80717,-3.3626 17.91877,-6.2278 4.1036,-2.3452 7.20972,-5.6786 9.15331,-8.9677 1.94358,-3.2891 2.83657,-6.5031 2.12432,-8.9677 -2.42469,-4.88 -4.72212,-8.6778 -6.93522,-12.3426 -3.59933,-5.9518 -8.21829,-13.30799 -12.99582,-20.62259 -4.77754,-7.3147 -9.71351,-14.5821 -13.93302,-20.3413 -3.27663,-4.4907 -6.64573,-9.041 -9.84059,-11.4363 -0.31561,-0.2404 -0.51216,-0.2057 -0.74981,-0.1555 z m -0.0625,2.0938 c 0.30188,0.2218 0.67049,0.5708 1.0934,0.9686 l -36.95687,10.3424 c -0.10957,0.094 -0.80836,-0.6196 -1.0622,-0.8436 z m 2.68664,2.6247 c 2.34186,2.6002 4.59633,5.6517 6.34171,8.0302 3.10157,4.2334 6.60572,9.3327 10.15298,14.6545 l -37.42546,11.2487 c -3.41841,-5.5475 -6.84335,-11.0419 -10.12175,-16.1855 -1.78589,-2.7866 -3.85077,-5.4647 -5.84182,-7.4364 z m -2.87408,4.2807 c -8.69513,2.3156 -17.41374,4.6451 -26.1166,6.9677 -0.60505,0.1582 -0.92647,0.9703 -0.59356,1.4999 l 10.37167,15.9668 c 0.23174,0.3444 0.69299,0.5158 1.09339,0.4062 l 26.8976,-7.4367 c 0.60294,-0.1814 0.89213,-1.0151 0.53108,-1.531 l -11.21514,-15.467 c -0.27438,-0.3697 -0.68544,-0.3168 -0.96844,-0.4059 z m -0.24992,2.1559 9.96555,13.7172 -24.77329,6.8742 -9.21578,-14.2171 z m -38.73754,2.1248 c 3.61153,3.2373 7.03887,6.7498 9.09078,10.2483 13.00444,19.36439 24.02953,40.12379 37.20678,59.21199 1.54409,1.2152 4.02189,1.2972 7.12271,0.9373 3.10082,-0.3598 6.82476,-1.301 10.62158,-2.8433 6.92923,-2.815 14.13351,-7.5759 17.83802,-14.4359 0.0627,1.6092 -0.57253,4.0005 -2.0306,6.468 -1.76952,2.9946 -4.63308,6.0943 -8.40355,8.249 -4.97987,2.6418 -11.20379,5.1953 -17.46313,5.8432 -3.63726,0.4337 -6.0147,-0.093 -7.65379,-0.9375 -1.63909,-0.8448 -2.58597,-2.0468 -3.28019,-3.2497 -7.94548,-12.2346 -15.97434,-24.555 -23.24248,-35.2144 -3.98842,-5.83933 -7.6883,-11.13779 -10.65282,-15.15449 -2.11019,-2.5916 -3.85139,-5.5194 -6.34171,-7.5615 -1.26644,-0.8364 -2.58279,-0.7382 -3.71756,-0.8749 -1.01246,-0.1221 -1.93995,-0.3378 -3.03027,-1.3124 0.32377,-3.1154 1.54568,-6.3842 3.93623,-9.3739 z m -3.99871,11.7799 c 1.01344,0.5695 1.99095,0.8035 2.84283,0.9062 1.34649,0.1621 2.27501,0.1354 2.87408,0.5311 2.22384,2.0965 4.14413,4.8363 5.81063,7.093 2.93892,3.9818 6.64126,9.26449 10.62158,15.09199 7.95571,11.6476 17.0064,25.3937 23.18005,35.0895 1.28098,1.8295 2.78921,3.3121 4.34235,4.1555 -0.94114,0.026 -1.77999,-0.325 -2.37423,-0.7186 -0.87811,-0.5918 -1.93398,-1.5646 -3.124,-2.8122 -2.38002,-2.4948 -5.23442,-6.1502 -8.27859,-10.3738 -6.08835,-8.4469 -12.96787,-19.2104 -18.71273,-28.0592 -0.10123,-0.1483 -0.24318,-0.2685 -0.40612,-0.3438 -6.34737,-3.10653 -11.49328,-8.03909 -14.9327,-13.93579 -1.05583,-2.2204 -1.73569,-4.5882 -1.84315,-6.6239 z m 63.51082,4.0932 c 0.85391,1.2897 1.71268,2.5747 2.56168,3.8745 4.76453,7.295 9.37972,14.63249 12.96458,20.56029 2.64098,4.367 4.72649,7.9841 5.87311,10.155 -3.01346,7.1172 -10.39348,12.3128 -17.61933,15.2482 -3.63948,1.4784 -7.24309,2.3842 -10.12175,2.7185 -2.82962,0.3282 -4.94527,-0.06 -5.56071,-0.5 -6.42864,-9.3079 -15.98229,-25.1464 -25.61676,-40.80779 z m -0.56232,5.7806 c -2.33699,0.7 -4.73514,1.4385 -7.09147,2.1553 -0.55264,0.097 -0.94459,0.7297 -0.78578,1.2679 0.1588,0.5383 0.83125,0.8566 1.3481,0.6381 l 6.77907,-2.0622 c 0.52343,-0.065 0.94015,-0.6014 0.87472,-1.1249 -0.10369,-0.7204 -0.68493,-0.9584 -1.12464,-0.8742 z m -10.99646,3.9995 c -2.31501,0.6832 -4.69324,1.3974 -7.02899,2.0928 -0.55246,0.097 -0.94415,0.72966 -0.78539,1.26776 0.15876,0.53823 0.83089,0.85643 1.34771,0.63833 l 6.71659,-1.99979 c 0.52343,-0.065 0.94015,-0.6013 0.87472,-1.1249 -0.15891,-0.7424 -0.68494,-0.9473 -1.12464,-0.8742 z m 14.58906,1.9373 c -2.30473,0.6802 -4.62965,1.43306 -6.93527,2.15569 -0.49879,0.1637 -0.80376,0.7666 -0.64022,1.2655 0.16355,0.4989 0.76615,0.8041 1.26502,0.6406 l 6.74783,-2.1247 c 0.45641,-0.1616 0.74833,-0.69063 0.64169,-1.16303 -0.14687,-0.67826 -0.63046,-0.81316 -1.07905,-0.77406 z m -25.55429,2.06229 c -2.11983,0.6258 -4.25729,1.3874 -6.37295,2.0927 -0.49879,0.1637 -0.80376,0.7665 -0.64021,1.2655 0.16355,0.4989 0.76614,0.8041 1.26501,0.6406 l 5.99807,-1.9998 c 0.52344,-0.065 0.94015,-0.6013 0.87472,-1.1248 -0.15891,-0.7867 -0.66284,-0.9363 -1.12464,-0.8742 z m 14.96394,1.9997 c -2.31675,0.6983 -4.69358,1.4388 -7.02899,2.1561 -0.55264,0.097 -0.94459,0.7297 -0.78578,1.2679 0.1588,0.5384 0.83125,0.8566 1.3481,0.6381 l 6.71659,-2.0623 c 0.52343,-0.065 0.94015,-0.6013 0.87472,-1.1249 -0.0654,-0.5235 -0.60121,-0.9403 -1.12464,-0.8749 z m 14.02674,2.9998 c -2.11984,0.6258 -4.25729,1.3874 -6.37295,2.0927 -0.49879,0.1637 -0.80376,0.7665 -0.64021,1.2655 0.16354,0.4989 0.76614,0.8041 1.26501,0.6406 l 5.99807,-1.9998 c 0.52343,-0.065 0.94015,-0.6013 0.87472,-1.1248 -0.13794,-0.7186 -0.61977,-0.9432 -1.12464,-0.8742 z m -24.99196,0.9998 c -2.11984,0.6259 -4.25729,1.3875 -6.37295,2.0928 -0.49879,0.1637 -0.80376,0.7665 -0.64022,1.2655 0.16355,0.4989 0.76615,0.8041 1.26502,0.6406 l 5.99807,-1.9998 c 0.52343,-0.065 0.94015,-0.6013 0.87472,-1.1249 -0.15891,-0.7314 -0.56344,-0.9362 -1.12464,-0.8742 z m 14.55782,2.656 c -2.01278,0.4827 -4.05507,1.1946 -6.06055,1.8118 -0.52755,0.1304 -0.8764,0.7492 -0.7148,1.2682 0.16159,0.5189 0.80012,0.8303 1.30836,0.6379 l 5.65443,-1.7185 c 0.50867,-0.068 0.91587,-0.579 0.86798,-1.0901 -0.0953,-0.5995 -0.44096,-0.9497 -1.05542,-0.9093 z m 14.43286,2.3435 c -2.10589,0.6091 -4.26424,1.3897 -6.37295,2.0927 -0.49879,0.1637 -0.80377,0.7665 -0.64022,1.2655 0.16355,0.4989 0.76614,0.8041 1.26501,0.6406 l 5.99808,-1.9998 c 0.52343,-0.065 0.94014,-0.6013 0.87471,-1.1248 -0.0755,-0.7029 -0.63539,-0.9588 -1.12463,-0.8742 z m -24.99197,0.9998 c -2.11984,0.6259 -4.25729,1.3875 -6.37295,2.0928 -0.49879,0.1637 -0.80376,0.7665 -0.64021,1.2654 0.16355,0.499 0.76614,0.8041 1.26501,0.6407 l 5.99807,-1.9998 c 0.52343,-0.065 0.94015,-0.6013 0.87472,-1.1249 -0.15891,-0.7203 -0.60762,-0.8921 -1.12464,-0.8742 z m 14.49534,2.781 c -2.0483,0.5628 -4.14312,1.3658 -6.18551,2.0615 -0.54895,0.1226 -0.91159,0.7753 -0.72578,1.3062 0.18581,0.531 0.87624,0.8151 1.38182,0.5685 l 5.74815,-1.9371 c 0.52343,-0.057 0.94759,-0.5858 0.89033,-1.1093 -0.0957,-0.721 -0.59213,-0.9687 -1.10901,-0.8898 z m 14.49534,2.2184 c -2.11984,0.6259 -4.25729,1.3875 -6.37295,2.0928 -0.49879,0.1637 -0.80376,0.7665 -0.64021,1.2655 0.16354,0.4989 0.76614,0.8041 1.26501,0.6406 l 5.99807,-1.9998 c 0.52343,-0.065 0.94015,-0.6013 0.87472,-1.1249 -0.13794,-0.7185 -0.65101,-0.9431 -1.12464,-0.8742 z m -24.99196,0.9999 c -2.11984,0.6259 -4.25729,1.3875 -6.37295,2.0928 -0.49879,0.1637 -0.80377,0.7665 -0.64022,1.2654 0.16355,0.499 0.76615,0.8041 1.26502,0.6407 l 5.99807,-1.9998 c 0.52343,-0.065 0.94014,-0.6013 0.87472,-1.1249 -0.0927,-0.6982 -0.6739,-0.9473 -1.12464,-0.8742 z m 8.05991,4.9676 c -0.54896,0.1226 -0.91159,0.7754 -0.72578,1.3063 0.18581,0.531 0.87624,0.8151 1.38181,0.5685 l 5.87312,-2.0934 c 0.44677,-0.1632 0.73308,-0.679 0.63547,-1.1445 -0.0976,-0.4656 -0.5669,-0.8228 -1.04159,-0.7928 -2.12772,0.6713 -4.30831,1.5053 -6.12303,2.1559 z m -4.18616,1.2504 c -1.99759,0.6901 -4.04327,1.3589 -6.06055,2.0315 -0.49902,0.1634 -0.80427,0.7665 -0.64067,1.2655 0.16359,0.4991 0.76652,0.8043 1.26547,0.6405 l 5.90435,-1.9997 c 0.47111,-0.1558 0.77462,-0.7023 0.65795,-1.1846 -0.18839,-0.6441 -0.6635,-0.8075 -1.12655,-0.7532 z" fill="#000000" fill-opacity="1" stroke="none" marker="none" visibility="visible" display="inline" overflow="visible"/></g></svg>