<svg width="29" height="29" viewBox="0 0 29 29" fill="none" xmlns="http://www.w3.org/2000/svg">
<rect x="0.519531" y="0.384033" width="28" height="28" rx="4" fill="#E4EEFF"/>
<path d="M13.7883 7.78413L20.388 8.72694L21.3308 15.3266L15.2025 21.4548C14.9422 21.7152 14.5201 21.7152 14.2597 21.4548L7.66011 14.8552C7.39976 14.5948 7.39976 14.1728 7.66011 13.9124L13.7883 7.78413ZM14.2597 9.19835L9.07432 14.3838L14.7311 20.0406L19.9166 14.8552L19.2095 9.90545L14.2597 9.19835ZM15.674 13.441C15.1533 12.9203 15.1533 12.0761 15.674 11.5554C16.1947 11.0347 17.0389 11.0347 17.5596 11.5554C18.0803 12.0761 18.0803 12.9203 17.5596 13.441C17.0389 13.9617 16.1947 13.9617 15.674 13.441Z" fill="#1D50AB"/>
</svg>
