<svg width="29" height="29" viewBox="0 0 29 29" fill="none" xmlns="http://www.w3.org/2000/svg">
<rect x="0.519531" y="0.384033" width="28" height="28" rx="4" fill="#E4EEFF"/>
<path d="M19.44 16.4544C20.4714 14.012 19.5457 11.1269 17.1903 9.76698C15.4882 8.78428 13.4696 8.84641 11.8772 9.75438L11.2156 8.5965C13.2062 7.46157 15.7294 7.38391 17.857 8.61228C20.8508 10.3407 21.9968 14.0405 20.602 17.1253L21.4965 17.6418L18.7198 19.1178L18.6098 15.9751L19.44 16.4544ZM9.60724 12.3171C8.57592 14.7595 9.50161 17.6447 11.857 19.0046C13.559 19.9872 15.5776 19.9252 17.17 19.0172L17.8316 20.1751C15.841 21.31 13.3179 21.3876 11.1903 20.1593C8.19655 18.4308 7.05054 14.731 8.44531 11.6463L7.55078 11.1298L10.3275 9.65373L10.4375 12.7965L9.60724 12.3171ZM12.1903 15.7191H15.857C16.0411 15.7191 16.1903 15.5698 16.1903 15.3858C16.1903 15.2017 16.0411 15.0524 15.857 15.0524H13.1903C12.2698 15.0524 11.5236 14.3062 11.5236 13.3858C11.5236 12.4653 12.2698 11.7191 13.1903 11.7191H13.857V11.0525H15.1903V11.7191H16.857V13.0524H13.1903C13.0062 13.0524 12.857 13.2017 12.857 13.3858C12.857 13.5698 13.0062 13.7191 13.1903 13.7191H15.857C16.7774 13.7191 17.5236 14.4653 17.5236 15.3858C17.5236 16.3062 16.7774 17.0524 15.857 17.0524H15.1903V17.7191H13.857V17.0524H12.1903V15.7191Z" fill="#1D50AB"/>
</svg>
